HIERARCHY
ROOT Bip001_Pelvis
{
  OFFSET 34.4345 95.6767 -26.8758
  CHANNELS 6 Xposition Yposition Zposition Zrotation Xrotation Yrotation
  JOINT Bip001_Spine
  {
    OFFSET 1.4188e-005 10.2191 -0.0116013
    CHANNELS 3 Zrotation Xrotation Yrotation
    JOINT Bip001_L_Thigh
    {
      OFFSET 11.0458 -10.2192 0.0116197
      CHANNELS 3 Zrotation Xrotation Yrotation
      JOINT Bip001_L_Calf
      {
        OFFSET -0.707118 -44.0221 0.360014
        CHANNELS 3 Zrotation Xrotation Yrotation
        JOINT Bip001_L_Foot
        {
          OFFSET -0.651902 -40.5938 -3.56146
          CHANNELS 3 Zrotation Xrotation Yrotation
          JOINT Bip001_L_Toe0
          {
            OFFSET 0.0530839 -10.2181 13.1504
            CHANNELS 3 Zrotation Xrotation Yrotation
            End Site
            {
              OFFSET -1.02532e-005 0 7.55606
            }
          }
        }
      }
    }
    JOINT Bip001_R_Thigh
    {
      OFFSET -11.0458 -10.2191 0.0115893
      CHANNELS 3 Zrotation Xrotation Yrotation
      JOINT Bip001_R_Calf
      {
        OFFSET 0.706994 -44.0221 0.35984
        CHANNELS 3 Zrotation Xrotation Yrotation
        JOINT Bip001_R_Foot
        {
          OFFSET 0.651786 -40.5938 -3.5613
          CHANNELS 3 Zrotation Xrotation Yrotation
          JOINT Bip001_R_Toe0
          {
            OFFSET -0.0531479 -10.2181 13.1504
            CHANNELS 3 Zrotation Xrotation Yrotation
            End Site
            {
              OFFSET -1.02894e-005 0 7.55606
            }
          }
        }
      }
    }
    JOINT Bip001_Spine1
    {
      OFFSET 1.87041e-005 14.5736 1.08638
      CHANNELS 3 Zrotation Xrotation Yrotation
      JOINT Bip001_Spine2
      {
        OFFSET 2.24614e-005 14.5058 -1.69078
        CHANNELS 3 Zrotation Xrotation Yrotation
        JOINT Bip001_Neck
        {
          OFFSET 2.20278e-005 15.3945 -0.489414
          CHANNELS 3 Zrotation Xrotation Yrotation
          JOINT Bip001_L_Clavicle
          {
            OFFSET 6.06036 -0.000579998 0.00836775
            CHANNELS 3 Zrotation Xrotation Yrotation
            JOINT Bip001_L_UpperArm
            {
              OFFSET 11.5509 -0.0600302 0.00193952
              CHANNELS 3 Zrotation Xrotation Yrotation
              JOINT Bip001_L_Forearm
              {
                OFFSET 25.9523 0.0806089 -2.15551
                CHANNELS 3 Zrotation Xrotation Yrotation
                JOINT Bip001_L_Hand
                {
                  OFFSET 32.2475 0.153767 1.63968
                  CHANNELS 3 Zrotation Xrotation Yrotation
                  JOINT Bip001_L_Finger0
                  {
                    OFFSET 6.04639 -2.20976 5.90322
                    CHANNELS 3 Zrotation Xrotation Yrotation
                    End Site
                    {
                      OFFSET 4.22375 -1.43895 0.606485
                    }
                  }
                  JOINT Bip001_L_Finger1
                  {
                    OFFSET 11.0826 -0.704819 -0.198153
                    CHANNELS 3 Zrotation Xrotation Yrotation
                    End Site
                    {
                      OFFSET 6.20027 -0.397518 -0.0787166
                    }
                  }
                }
              }
            }
          }
          JOINT Bip001_R_Clavicle
          {
            OFFSET -6.06037 -0.000563197 0.00835105
            CHANNELS 3 Zrotation Xrotation Yrotation
            JOINT Bip001_R_UpperArm
            {
              OFFSET -11.5509 -0.0599978 0.00190698
              CHANNELS 3 Zrotation Xrotation Yrotation
              JOINT Bip001_R_Forearm
              {
                OFFSET -25.9523 0.0806822 -2.15589
                CHANNELS 3 Zrotation Xrotation Yrotation
                JOINT Bip001_R_Hand
                {
                  OFFSET -32.2475 0.153859 1.63989
                  CHANNELS 3 Zrotation Xrotation Yrotation
                  JOINT Bip001_R_Finger0
                  {
                    OFFSET -6.04641 -2.20976 5.90317
                    CHANNELS 3 Zrotation Xrotation Yrotation
                    End Site
                    {
                      OFFSET -4.22376 -1.43895 0.60647
                    }
                  }
                  JOINT Bip001_R_Finger1
                  {
                    OFFSET -11.0826 -0.704794 -0.198182
                    CHANNELS 3 Zrotation Xrotation Yrotation
                    End Site
                    {
                      OFFSET -6.20028 -0.397504 -0.0787333
                    }
                  }
                }
              }
            }
          }
          JOINT Bip001_Head
          {
            OFFSET 1.09673e-005 11.2744 2.05948
            CHANNELS 3 Zrotation Xrotation Yrotation
            End Site
            {
              OFFSET 2.89576e-005 20.8808 -2.77728e-005
            }
          }
        }
      }
    }
  }
}
MOTION
Frames:	12
Frame Time:	0.04
32.2651 94.0336 -29.7657 -5.19316 -4.38998 11.6879 -0.767518 1.57545 1.25002 15.8211 -10.7046 11.2065 0.278243 27.4666 -14.723 4.27477 -11.9649 0.259461 1.49705 -6.26506 -0.870445 3.10946 0.210475 -0.96103 2.35522 14.5815 -0.597542 -11.6716 -7.02424 -13.7195 3.4454 -11.2308 3.64063 -1.57015 3.13374 2.52239 -1.57014 3.13373 2.52239 9.14297 -15.1816 -6.04627 -31.0936 14.8592 -1.44478 -41.4222 41.4225 1.64586 18.4823 1.88548 -35.0771 6.59016 2.43283 -5.42137 6.36111e-015 -3.18055e-015 -3.18055e-015 6.36111e-015 0 -0 -11.8355 15.1043 21.8402 25.9693 -47.4703 43.8599 -36.014 -3.92066 44.0672 -15.3487 -3.37967 7.35473 1.59028e-015 3.18055e-015 -1.59028e-015 4.77083e-015 6.36111e-015 -1.59028e-015 -8.6831 -0.726457 -2.32062 
32.1216 94.7342 -29.7665 -5.15461 -2.67158 13.894 -0.960134 1.30114 1.66608 15.0885 -11.1995 9.72845 0.31603 23.661 -15.3324 2.83569 -10.362 0.147478 1.20309 -5.61936 -0.779548 3.57848 1.41191 -1.1866 1.81421 9.28205 -1.09378 -11.093 -4.4426 -14.6461 3.30296 -10.8076 3.46888 -1.95847 2.57363 3.35506 -1.95846 2.57361 3.35505 9.09448 -16.4067 -7.63163 -32.9459 14.8384 1.25057 -40.0324 39.038 2.56789 18.0848 1.30779 -37.4836 6.8262 1.95493 -6.26949 9.54166e-015 3.18055e-015 3.18055e-015 3.18055e-015 3.18056e-015 3.18055e-015 -17.602 14.2919 27.0625 16.0601 -41.0049 38.5428 -39.927 -3.29709 28.5826 -10.7767 -1.86868 6.94406 -1.10348e-032 1.59028e-015 3.97569e-016 -3.18055e-015 0 -0 -8.93826 0.426458 -3.75775 
31.949 95.1408 -29.7986 -5.3834 -1.0835 16.4748 -1.06942 1.09933 2.02491 14.8369 -12.2868 8.49685 -0.212441 20.9298 -16.5054 2.80164 -8.61702 0.0961969 1.22923 -5.59478 -0.78946 4.05459 2.41775 -1.95353 1.50159 4.43894 -1.41718 -10.8233 -2.19946 -15.7667 3.16703 -10.4718 3.41917 -2.16735 2.15915 4.07798 -2.17151 2.15926 4.07434 9.54211 -18.5682 -9.79462 -34.3339 15.1265 5.0804 -39.2427 38.9811 1.84386 17.3215 0.807034 -38.7363 7.62614 1.90407 -5.82738 -6.36111e-015 -3.18055e-015 3.18055e-015 -9.54166e-015 3.18056e-015 -0 -19.5364 15.3471 30.466 25.2174 -56.4804 50.9571 -42.6064 9.1241 23.3042 -5.09581 -0.62867 8.2247 -4.77083e-015 7.95139e-016 5.96354e-016 -5.51738e-033 1.59028e-015 1.98785e-016 -8.99097 4.03573 -5.54117 
31.8774 95.3592 -29.6925 -5.97811 -0.801664 19.1803 -0.824506 0.980174 2.23477 15.2503 -13.1929 7.67195 -0.844127 20.274 -17.481 1.02566 -9.06339 0.0683478 0.958463 -4.3534 -0.766105 4.92782 3.32023 -4.27402 0.863835 2.18824 -1.57085 -10.495 -1.36371 -15.9318 3.17595 -10.4319 3.32467 -1.67468 1.92776 4.47457 -1.6859 1.9276 4.47865 10.6326 -18.1719 -12.0957 -35.8266 13.1984 6.66544 -39.4353 40.425 2.16284 16.992 0.821374 -38.8145 7.51775 1.54614 -5.85635 -9.54166e-015 3.18055e-015 -3.18055e-015 -9.54166e-015 3.18056e-015 -3.18055e-015 -23.5058 12.6504 28.3873 15.2133 -62.783 45.1505 -33.499 18.9134 22.4284 -7.7069 -1.71729 10.438 3.18055e-015 0 1.14301e-015 -1.59028e-015 3.97569e-016 2.48481e-016 -10.562 4.16984 -7.13487 
32.1727 95.6345 -29.4696 -5.58186 -0.750035 20.9317 -0.680942 0.851121 1.89337 14.5285 -12.2784 5.37995 -1.68517 18.183 -16.088 -0.715059 -8.98552 0.0231305 0.293908 -3.02 -0.264072 4.63784 4.0332 -5.26344 0.443758 1.76403 -1.78019 -10.1274 -1.33415 -16.1487 3.21665 -10.4659 3.24022 -1.38987 1.67922 3.79733 -1.38987 1.67922 3.79733 13.3347 -15.1467 -13.2536 -37.8404 9.27121 5.77115 -42.0996 40.2963 6.47902 17.6717 1.08314 -38.7378 6.99887 1.60167 -6.19011 -9.54166e-015 6.36111e-015 -3.18055e-015 -6.36111e-015 6.36111e-015 -6.36111e-015 -30.1461 6.64497 23.3623 -6.27178 -40.6942 26.6711 -33.5988 3.54714 15.2729 -8.08142 -1.15733 9.48615 -1.65521e-032 -1.59028e-015 -5.96354e-016 -1.59028e-015 1.59028e-015 3.97569e-016 -13.2364 1.86212 -7.15377 
32.6827 95.8296 -29.2864 -4.02165 -0.107939 19.8234 -0.840296 0.902513 1.27455 12.8962 -9.81658 5.07861 -2.35341 14.4425 -14.1584 -0.965005 -7.43652 0.0343091 0.171712 -2.97972 -0.151731 2.78888 4.1238 -3.67954 0.343309 1.75433 -1.95707 -9.9701 -1.26443 -16.0095 3.23831 -10.5359 3.25731 -1.67212 1.7858 2.56186 -1.68841 1.78583 2.56093 14.5455 -13.8456 -12.221 -37.0521 7.98907 6.9704 -45.3399 41.5242 8.28382 17.9247 0.900995 -36.5056 7.26656 1.35406 -6.28058 9.54166e-015 6.36111e-015 -3.18055e-015 6.36111e-015 6.36111e-015 -3.18055e-015 -36.4412 3.62063 20.8036 5.2373 -42.5768 36.9628 -40.5237 6.01453 24.678 -6.4273 -0.542856 9.97545 -1.43452e-031 -1.59028e-015 -5.1684e-015 0 0 -6.16232e-015 -13.2432 1.60436 -5.89542 
32.9941 95.8458 -29.3065 -3.3937 0.140781 16.5812 -0.578312 1.03063 1.07729 12.0071 -8.33389 4.75343 -2.93541 13.2261 -10.6659 -0.274985 -6.96871 0.0438485 0.320288 -3.28465 -0.235891 1.23653 3.61556 -1.92515 0.463553 1.94175 -2.16308 -9.66405 -1.37312 -14.4767 3.25017 -10.6085 3.35902 -1.20821 2.05076 2.17699 -1.17859 2.05081 2.17316 13.0116 -13.4558 -10.7817 -35.6782 8.3671 7.58034 -46.6509 42.0562 8.54793 19.3947 2.96651 -34.8595 4.52496 1.64169 -5.9796 3.18055e-015 -1.27222e-014 3.18055e-015 3.18055e-015 -9.54167e-015 6.36111e-015 -35.8983 3.97461 21.9434 10.4625 -45.7889 46.1508 -43.5276 3.04319 32.9052 0.0959992 -0.47524 13.9901 -1.59028e-015 -1.47846e-015 -6.55989e-015 -1.59028e-015 -8.32411e-016 -1.05076e-014 -12.1279 1.01653 -5.07341 
33.1206 95.7804 -29.3205 -3.57207 -0.433079 13.1631 -0.207883 1.21682 1.52362 12.1512 -7.43898 7.38772 -2.9262 14.1715 -10.551 1.06139 -7.30618 0.0574591 0.782482 -3.82595 -0.613613 0.806921 3.57771 -1.79564 0.340788 1.9276 -1.6458 -9.2112 -1.51518 -12.4924 3.21309 -10.5602 3.39172 -0.448883 2.42743 3.05259 -0.448877 2.42742 3.05258 13.1689 -13.8841 -10.8702 -37.7951 8.73451 6.50746 -46.2622 41.7984 8.9436 21.1544 6.37094 -33.7515 2.3022 1.93707 -6.51113 -6.36111e-015 -3.18055e-015 -1.59028e-015 -9.54166e-015 -6.36111e-015 1.59028e-015 -34.2312 5.01809 21.1103 24.4704 -46.5238 63.2701 -46.4264 3.64248 44.8101 1.09135 0.182262 15.128 1.59028e-015 0 2.98177e-015 1.59028e-015 -1.59028e-015 1.19271e-015 -12.7582 0.566277 -5.0862 
33.5297 95.8114 -29.316 -2.63169 -0.831272 11.2844 -0.236086 1.40514 1.43964 10.6056 -5.97608 7.64284 -1.96595 13.147 -8.35351 -0.352537 -7.68123 0.0511329 0.924066 -3.11095 -0.854149 -0.617753 3.42271 -3.61919 0.382369 2.88032 -1.17172 -8.60505 -2.54571 -9.64613 3.16466 -10.4599 3.40734 -0.519891 2.80353 2.88619 -0.514068 2.80381 2.88686 13.3736 -13.9264 -10.5904 -38.1907 8.87421 6.21958 -46.9242 42.8778 8.85226 21.4658 7.06106 -31.905 3.42196 1.94373 -7.2082 0 0 -1.59028e-015 1.76556e-031 3.18056e-015 -3.18055e-015 -31.2689 6.3071 20.7224 35.2529 -40.1177 73.4863 -50.0981 1.24136 57.6212 2.69953 -0.484875 15.8031 -7.95139e-016 0 -4.17448e-015 -1.59028e-015 0 -2.78299e-015 -12.8612 0.467189 -4.74701 
33.6932 95.8345 -29.2084 -1.98898 -0.802219 9.35745 -0.20508 1.40305 1.02513 9.22966 -4.64782 10.1692 -0.628425 11.8502 -9.06446 0.103525 -6.79797 0.0511881 1.18436 -3.81293 -0.958404 -1.70053 2.73938 -3.01984 0.392752 4.1839 -0.953357 -8.20801 -3.50451 -8.3784 3.10695 -10.327 3.401 -0.435445 2.8022 2.05622 -0.435446 2.8022 2.05623 11.9533 -12.2594 -9.37719 -36.4472 8.18485 5.78926 -48.4724 42.862 8.86488 21.2991 6.64041 -30.7148 5.36523 1.5885 -6.88968 -1.76556e-031 3.18055e-015 3.18055e-015 -1.76556e-031 6.36111e-015 1.59028e-015 -25.642 6.98619 22.9216 46.3567 -33.7706 77.3283 -51.1143 0.929922 74.5051 6.42533 -1.70374 16.7691 1.98785e-015 6.36111e-015 -7.15625e-015 1.19271e-015 9.54167e-015 -3.57812e-015 -11.1204 -0.205815 -4.19139 
33.706 95.8223 -29.1945 -1.86853 -0.687909 7.52595 -0.142562 1.49382 0.669397 8.91222 -3.98514 11.6102 -0.516224 11.198 -8.76643 0.81886 -6.22601 0.0515625 1.22385 -4.38144 -0.883879 -2.14764 1.88053 -2.08405 0.391004 5.01652 -0.939224 -7.90023 -4.06024 -7.35992 3.03386 -10.1308 3.35272 -0.306161 2.98586 1.34305 -0.303809 2.98587 1.34326 10.3345 -11.9653 -7.96692 -34.929 8.70483 5.78833 -48.6172 41.2503 7.8435 20.065 4.79406 -30.5934 6.13184 1.72056 -6.1893 3.18055e-015 -6.36111e-015 -6.36111e-015 6.36111e-015 -9.54167e-015 -4.77083e-015 -18.6665 9.46327 25.0333 56.4333 -29.7408 74.2429 -50.6356 2.91734 93.8526 8.31792 -3.75965 15.2147 2.78298e-015 -3.18055e-015 -1.59028e-015 1.98785e-015 -3.18056e-015 -1.98785e-015 -9.21169 -0.240927 -3.56251 
33.793 95.8275 -29.1714 -1.40651 -1.0341 6.03479 -0.144305 1.72763 0.444208 8.50347 -3.12434 11.1344 -0.834136 10.7013 -5.74595 -0.760417 -6.96199 0.0523012 1.23818 -3.2777 -1.14227 -2.92988 1.46017 -2.45686 0.466229 5.84453 -0.630467 -7.51248 -4.82808 -5.79324 2.98096 -10.0281 3.37796 -0.295146 3.45415 0.894298 -0.296132 3.45414 0.893449 8.79362 -12.1573 -6.89689 -33.7606 9.54934 5.5965 -48.2724 40.2244 6.35565 18.8199 2.48791 -30.6042 6.23942 1.554 -5.73429 -3.18055e-015 -6.36111e-015 -6.36111e-015 -3.53113e-031 -6.36111e-015 -3.18055e-015 -9.65576 13.0783 27.1537 46.2921 -25.9051 56.0524 -47.186 -0.712987 101.647 6.99772 -4.00747 12.835 -3.18055e-015 -3.18055e-015 3.18055e-015 -4.77083e-015 -3.18056e-015 1.59028e-015 -7.39238 -0.336073 -3.24734 
